<svg height="182.482876" viewBox="0 0 1000.0003 333.34467" width="547.996624" xmlns="http://www.w3.org/2000/svg"><g fill="#1f36c7" transform="matrix(1.3333333 0 0 -1.3333333 -733.75211 127.38712)"><path d="m6.6542969 271.31055c-3.363188-.1502-7.42833542 1.73476-6.52734378 4.94726 4.84174658 17.45812 2.37660368 34.81756.96484378 53.25-.67605334 5.16983 9.8026581 4.7506 10.5781251.86328 1.451533-7.26758 1.829532-19.21639 1.640625-21.66211-.178947-2.43578 22.646443-5.80695 22.537109-4.02734-.109373 1.77961.845613 14.51487 2.94336 20.0625 2.107706 5.55756 5.775423 7.31877 8.966796 7.8457 3.191387.51698 7.516899.33729 10.638672-1.83007 3.11184-2.1773 6.481363-6.96927 7.972657-8.3711 2.11764-2.00828 2.823634 10.19141 11.115234 10.19141 2.773813 0 5.419606-2.20738 8.630859-5.05078-.169013.75558-.288157 1.39174-.33789 1.8789-.188894 1.72991.535718 3.02222 2.265625 3.20118 4.30488.43743 20.143371-19.04883 25.164061-19.04883 6.40264 0 7.94335 19.1875 15.21094 19.1875 2.30653 0 8.36192-4.51379 10.31055-8.47071.16901.686.28679 3.51019.63476 4.14649.91465 1.6802 2.33761 3.25044 4.33594 3.99609 1.55095.57663 5.38834.75621 8.49023-.80469 3.1019-1.58077 5.87617-3.72862 8.23243-7.57617.68599-1.14333 1.58015-2.09833 2.23632-.4082.66611 1.6802 3.56979 7.04881 8.00391 8.48047 4.43412 1.43164 10.14911-3.30013 12.75391-5.20899 1.31234-.97432 1.60151.75588 2.70507 2.40625 1.10356 1.65036 3.22133 3.96698 8.36133 2.52539 5.14-1.44158 13.2221-14.63577 16.00586-14.57617 2.78375.0696.86544 10.76857 5.47852 14.56641 2.11764.93455 4.74287.23736 7.45703-1.47266 7.46642-6.24357 12.05879-12.27853 16.67187-20.68945.9942-1.47144 2.02912-1.61043 3.58008-.11914 4.20545 4.04639 4.35401 13.59051-.4082 14.6543-4.75227 1.08368-6.27417-2.46442-7.88477-.39649-1.61064 2.06793-1.7592 3.95604-.0293 6.10352 1.7299 2.13752 5.64715 3.37068 9.79296 2.95312 4.1458-.4275 7.41731-1.68921 10.75782-4.125 3.33056-2.4159 5.45779-4.51392 7.39648-6.5918.49709-.51698 1.08423-.43854 1.6211 1.16211 1.46147 4.23528 6.24361 10.03135 12.10937 9.36524 5.84589-.66612 7.54442-3.63792 9.33398-6.10352.14914.46727.33952.91376.57813 1.3711.86495 1.6802 2.21631 3.26234 4.11523 3.99804 1.47142.5667 5.12999.93484 8.15235-.5664 3.04224-1.4913 5.6379-3.56011 7.99414-7.32813.65617-1.05385 1.32093-1.02412 1.94726.66602.62635 1.6802 2.71403 6.27412 6.17383 7.44726 3.43994 1.16322 6.41371-.89547 9.40625-2.82422l-.01.0391c-.17896 1.72989.54743 3.02222 2.27734 3.20117 4.30487.43745 20.14158-19.04883 25.15234-19.04883 6.41258 0 7.95312 19.19922 15.22071 19.19922 4.32415 0 9.67263-8.13058 10.89648-11.51172v-.002c1.2214-3.38959-.95488-6.76873-2.07812-5.25781-1.13339 1.51118-3.92648 5.875-6.75 5.875-7.77463 0-8.4611-24.20899-14.17774-24.20899-4.66278 0-12.68547 15.39063-15.11133 15.39063-1.37198 0-2.59403-4.36364-3.45898-8.63868-.24855-1.19304-.47843-2.63524-1.25391-2.71484-1.541-.1392-3.4699 1.18382-4.17578 3.04297-.71582 1.82932-1.99858 7.59438-3.40039 12.84375-.26844.97431-.6547 2.28746-1.07226 3.69922-.74566 1.0439-2.79432 2.71345-3.70899 3.01172-6.48217 2.12757-7.55653-8.31155-8.11328-12.10938-.55675-3.80778-.87449-7.22664-1.01367-10.74609-.0994-2.66446-5.32878-3.6989-6.2832-2.50586-.65618.81524-.20785 3.15065-1.04297 3.79687-1.0638.81524-3.10296-4.18497-7.20899-3.77734-6.49212.66611-11.22462 10.22057-12.76562 16.50391-.32808 1.34217-1.30236 4.14562-2.64453 5.8457-.1889.21873-.3775.41818-.56641.62695l-.0293.0195v.01c-1.7299 1.75973-3.09307 2.71372-4.7832 2.33594-1.69015-.36786-4.93084-3.45958-5.63672-9.92188-.70588-6.45234 1.03496-16.56374 2.36719-22.43945 3.65865-.12925 7.54535.35877 11.15429-.26758 4.03644-.67605 4.0456-4.74232.81446-5.83594-3.4797-1.17316-6.94859-.40769-10.61719-.54687.24856-1.87904 1.4616-9.49577 1.09375-11.27539-.35792-1.75972-5.33015-2.64349-5.98633-1.38086-1.82932 3.54929-3.3694 10.00014-4.125 12.52539-4.61308.12925-9.64412-.0483-10.6582 1.35351-4.17563 5.74646 8.15238 5.40791 9.91211 5.53711-1.9884 8.9279-2.42572 17.24923-3.31055 21.14649-1.22286 5.35873-8.10251 9.08757-8.16211 6.46289-.10936-4.14581-1.024-8.70882-2.7539-11.80078-1.72991-3.09196-4.56443-6.3843-7.20899-8.39258-2.21706-1.70013-5.59743-3.11078-8.14258-1.59961-2.54514 1.51119.0798 3.98663-.78515 6.50195-.85502 2.51532-7.8539 16.46444-13.99805 17.58789-8.18225 1.50123-3.59914-13.61047-5.60742-21.25586-.38773-1.50124-.94409-2.22825-2.55469-3.01367-1.60067-.8053-2.79321 2.23803-4.76172 6.10547-2.227 4.38441-5.78729 9.6525-8.85937 12.39649-5.79618 5.17977-9.53411 5.01157-9.48438.94531.0398-3.18144 3.11193-13.35258 2.19727-17.36914-.0696-1.47142-4.25477-2.94271-5.52735-1.98828-2.1574 2.66445-2.24705 21.08639-8.68945 26.3457-5.52775 4.51365-9.13581-5.42723-10.50781-13.05274-1.36205-7.61554-1.31382-22.90642-.57813-36.10937.11931-2.18727-6.82838-4.21583-7.47461-2.06836-1.08368 5.83595-1.97909 20.3608-2.38671 26.33594-.77547 1.54101-2.7139-2.37562-6.6211-1.67969-6.77048 1.21293-11.87071 11.72112-13.10351 18.08398-.72578 3.73819-5.01132 7.14844-7.56641 7.14844-7.76468 0-9.03743-25.07422-14.74414-25.07422-4.67272 0-12.68531 15.38086-15.12109 15.38086-1.371991 0-2.595814-4.35385-3.470708-8.6289-.238613-1.19304-.466539-2.63525-1.251953-2.71485-1.531066-.13918-3.450189 1.18399-4.166015 3.03321-.715814 1.83926-1.998564 7.60415-3.400391 12.85351-.07953.30822-.177877.63624-.277344.99414-1.242746 2.61475-4.494401 6.11454-8.113281 6.26367-3.61888.14914-6.382812-1.79932-6.382812-10.25 2.6048-7.09857.875088-15.2207-2.763672-15.2207-5.179773 0-6.909112 9.13624-7.078125 15.54883-.626347 2.17729-3.63018 6.98908-6.751953 9.14648-3.121787 2.14747-7.804704 1.07423-9.345704-3.2207-1.541013-4.30488-4.583297-27.42952 1.103516-43.625 2.44572-6.96933-10.169545-7.59716-11.511719-.57812-1.352106 7.01904-1.412382 12.90587-2.167968 18.54296-.119307.90472-20.559552 3.61848-22.707032 2.55469-.596506-7.40677-.9547-16.58291-2.1875-23.80078-.287075-1.70753-2.0523994-2.53097-4.0703121-2.62109zm66.1777341.7832c-3.280853 0-6.363236 3.44868-6.035156 7.77344.208787 2.85334 1.888707 5.19922 5.189453 5.19922 3.787893 0 6.552871-4.32382 6.214844-8.31055-.248547-2.76388-2.426314-4.66211-5.369141-4.66211zm82.292969 32.27148c1.44045-.0545 2.96102.65738 3.57617 1.86719.90472 1.75974 1.01422 7.25901-.33789 11.26563-1.34217 4.00662-3.87744 7.55458-7.92383 8.11133-4.03644.55675-4.04608-5.59716-3.42968-8.81836.6164-3.21126 3.12147-9.65439 6.29296-11.85157.52817-.36661 1.16752-.54942 1.82227-.57422zm146.59961 2.56641c1.41458.004 3.00925.71252 3.55078 2.40234.82517 2.58491.41788 6.57327-.34766 9.04883-.77548 2.47555-2.94135 6.51072-6.9082 7.00781-3.95691.48716-4.37436-5.61669-3.5293-8.83789.85502-3.2212 2.33542-6.89071 5.33789-9.08789.46479-.34517 1.15552-.5354 1.89649-.5332z" fill-rule="evenodd" transform="matrix(.75000002 0 0 -.75000002 550.31428 95.535295)"/><path d="m751.20703 272.06641c-3.10315-.15038-6.67854 1.44751-7.34961 4.95703-3.0124 15.63873-6.82991 45.73308 1.64063 54.17383 3.65866 3.6487 19.03742 1.70978 27.60742-1.96875 5.9552-2.55508 7.83507-4.87145 9.31641-6.28321 2.11773-2.00828 2.82353 10.02149 11.125 10.02149 2.76386 0 5.40794-2.20738 8.61914-5.05078-.16907.75558-.28856 1.39176-.3379 1.8789-.17893 1.72991.53748 3.02239 2.27735 3.19141 5.02067.52692 21.47534-24.05897 25.2832-18.3125 1.48134 2.23694.34621 14.55457.29688 15.11133-.18894 1.7299.54771 3.02239 2.26757 3.1914 4.30494.44739 14.46577-19.41601 19.47657-19.41601 6.3628 0 1.38075 18.70944 8.42969 19.56445 5.06039.6164 14.47673-7.08865 17.6582-10.34961 2.048-2.09776 2.8234 10.19141 11.125 10.19141 3.9172 0 6.75941-2.36603 8.75781-4.52344 1.99827-2.15741 4.06614-6.52172 4.96094-4.08594 1.55093 4.20546 6.23436 8.93783 11.85156 8.69922 4.50373-.19884 8.15186-2.15811 11.04492-4.36523 2.416 2.76388 5.34908 3.9082 8.13281 3.9082 9.3256.0597 14.07789-4.08641 18.05469-8.02344 1.024-.9942 1.59137-.16003 1.72071.82422.2088 1.6106.89408 3.13236 1.25195 3.81836.8848 1.69013 2.03861 2.96351 4.04687 3.69922 1.55094.57664 5.38837.76418 8.49024-.80664 3.102-1.57084 5.86639-3.72686 8.22265-7.56445.70587-1.15327 1.57996-2.09817 2.2461-.41797.66613 1.69013 3.17204 7.05858 8.0039 8.49023 4.82187 1.43164 11.66132-3.042 14.01758-6.83984 1.43169-2.30654-.24849-5.98604-1.21289-5.01172-.8152.81524-2.26718 2.45518-4.15625 3.33008-6.502 2.97265-9.15558-4.95067-10.51758-12.57618-1.36213-7.63544-1.31385-22.91636-.57812-36.10937.1292-2.19713-6.83834-4.22381-7.47461-2.06641-1.0836 5.83595-1.97912 20.36081-2.38672 26.33594-.77547 1.53107-2.71379-2.38753-6.63086-1.68164-6.00493 1.07373-10.01205 8.4518-12.63672 15.02344-2.62466 6.5816-7.79468 12.67578-14.41601 12.67578-1.90894 0-4.14644-.87515-5.35938-2.07813 6.90974-4.32476 11.58399-8.82772 11.58399-14.35547 0-4.67273-3.11191-11.76171-8.47071-11.76171-6.74066 0-14.52539 10.19942-14.52539 22.29882 0 1.83927.46588 3.57027.74414 4.67383-2.19706 1.40183-5.16007 1.91874-7.58593.88477-2.058-.88484-4.94062-4.18616-5.64649-10.64844-.706-6.45235 1.04492-16.56375 2.36719-22.43945 3.66853-.12924 7.54536.35877 11.1543-.26758 4.0364-.68599 4.05723-4.73238.82617-5.83594-3.48974-1.17316-6.96048-.40791-10.61914-.53711.24866-1.88897 1.46148-9.50359 1.09375-11.2832-.36787-1.75973-5.33801-2.65539-5.99414-1.38281-1.82934 3.55922-3.36149 10.00207-4.12696 12.52734-4.6032.13919-9.63443-.0503-10.64843 1.35156-4.1856 5.74647 8.14261 5.41801 9.90234 5.52735-1.9884 8.93784-2.41575 17.25899-3.31055 21.15625-.46733 2.04805-1.33097 4.41473-2.93164 7.01953-1.58066 2.54514-3.54034 4.55473-6.22461 4.66406-2.6844.11931-6.37304-1.78937-6.37304-10.25 2.5948-7.09857.86512-15.22266-2.76368-15.22266-5.18973 0-6.90895 9.14798-7.08789 15.56055-.6264 2.17729-1.1637 5.19974-6.13476 8.0332-2.47547 1.41176-4.73249 1.43099-5.60742-1.06445-.8848-2.50537-1.78842-24.61719-7.88282-24.61719-4.6628 0-15.14211 17.34937-17.47851 15.38086-2.34627-1.94862-2.3259-14.87304-7.1875-14.87304-4.6628 0-11.84148 15.26172-14.27735 15.26172-1.37186-.00001-2.21709-4.35581-3.08203-8.63086-.24853-1.19303-.47844-2.63525-1.2539-2.71485-1.54094-.13918-3.45797 1.18401-4.17383 3.03321-.71587 1.83926-1.99866 7.59616-3.40039 12.85546-.0796.3082-.16997.63622-.2793.99414-1.2428 2.61474-4.49435 6.11454-8.11328 6.26368-3.61893.14913-6.38281-1.79914-6.38281-10.25977 2.6048-7.08864.87512-15.22266-2.76367-15.22266-5.17974 0-6.90906 9.14798-7.07813 15.56055-.62627 2.17729-1.60013 4.48377-6.75 6.93945-5.14 2.45567-17.11029 4.60311-19.80469 1.21289-2.70413-3.40015-3.75906-29.65803 1.92774-45.85351 1.22286-3.48467-1.40662-5.38283-4.50977-5.5332zm132.78125.40429c-3.28093 0-6.37292 3.44868-6.04492 7.77344.2088 2.85335 1.89074 5.19922 5.19141 5.19922 3.79786 0 6.56089-4.324 6.21289-8.30078-.23854-2.76387-2.41658-4.67188-5.35938-4.67188zm-95.3125.01c-3.28093 0-6.37329 3.44886-6.03516 7.76367.2088 2.86329 1.88866 5.21094 5.18946 5.21094 3.78786 0 6.55112-4.32577 6.20312-8.3125-.23866-2.76387-2.41462-4.66211-5.35742-4.66211zm181.21289 32.39258c1.44045-.0546 2.96304.65737 3.57813 1.86718.8948 1.74979 1.00424 7.25723-.33789 11.25391-1.34214 4.01656-3.87743 7.5663-7.92383 8.12305-4.0364.54681-4.04609-5.59716-3.42969-8.81836.6264-3.21126 3.12137-9.66432 6.29297-11.85156.52817-.36661 1.16556-.54943 1.82031-.57422zm-35.28515.93164c1.88906 0 3.44921 2.42649 3.44921 5.35937 0 3.45982-1.39177 7.60494-6.39257 9.17578-.70587-.88484-2.2461-2.94263-2.2461-7.27734 0-5.53768 3.61866-7.25781 5.18946-7.25781z" fill-rule="evenodd" transform="matrix(.75000002 0 0 -.75000002 550.31428 95.535295)"/><g stroke-width="2.10089"><path d="m885.48373-124.26063c-.36976 1.17859-1.44963 3.82778-1.74376 5.78368-.64918 4.33199 1.6156 7.18497 3.69551 7.83833 2.33411.65128 3.24591-.52101 4.1493-3.24583 1.16811-4.14921 1.29837-9.58624.9055-17.36996-.51052-10.63249-5.83004-23.47299-19.05319-23.20617-11.41427.25001-16.46486 7.64295-16.99009 18.92249-.24791 5.31731.13236 10.6325 2.33411 18.14939 1.16811 4.02526 2.21016 5.45805 5.83424 6.22907 2.84884.52101 2.59253-2.45801 1.94755-5.97066-1.42022-7.7753-2.07991-11.52954-1.55468-20.3511.50842-9.33624 4.79639-12.96864 9.46462-12.96864 7.00235-.13445 10.1117 5.69965 11.41426 14.13673 1.02735 6.73958.25211 9.98122-.40337 12.05267zm149.29937-9.20809c2.727 0 3.5085-3.22484 2.8572-5.17864-.6513-1.9412-2.9812-4.15552-6.6095-4.80048-.7815 1.9496-1.1723 9.97912 3.7523 9.97912zm-50.68668-4.39503c0 2.19541-1.17441 4.01265-2.58832 4.01265-1.18072 0-3.893-1.29201-3.893-5.44334 0-3.25214 1.15551-4.79416 1.68493-5.45594 3.75014 1.17229 4.79639 4.29208 4.79639 6.88663zm-40.33334 26.44572c-.18278 2.07985-1.81309 3.49584-4.01905 3.49584-2.46017 0-4.77748-2.58197-4.53167-5.82571.15757-2.13868 1.41811-3.8971 3.89509-3.8971 2.84254-.002 4.91614 3.23953 4.65563 6.22697zm21.08687-7.61565c-.2248 3.6261-1.10298 5.26267-3.05053 5.12822-2.58202-.15546-3.77534-8.27952-3.24801-16.81955.33615-5.57149 1.16601-6.43073 1.93914-6.37613 1.42862.0861 4.85521 10.04005 4.3594 18.06746zm86.01355-13.64933c-1.6072-6.66605-6.4793-16.47287-13.7484-16.47287-1.6828 0-4.6661.65335-4.6661 2.33825 0 1.81725 11.4184 2.06725 11.4184 10.76063 0 3.23744-2.9812 7.78162-7.3931 7.78162-5.8342 0-11.5256-6.35933-11.5256-15.17456 0-7.90347 4.9098-10.49803 9.8365-10.49803 8.5612 0 13.7484 7.00639 16.469 12.83628 1.3026-3.89079 2.0673-12.83628 5.3216-12.83628 1.2921 0 2.206.64916 3.7628 4.145 3.8804 8.69338 7.6452 18.67671 12.8345 18.67671 1.9391 0 .7773-3.50845 5.4434-3.50845 2.1997 0 3.7502 1.81515 3.7502 3.8992 0 2.98534-2.7186 5.31099-6.8637 5.31099-12.1916 0-14.7757-18.28382-16.7233-18.28382-3.2438 0-2.206 14.65353-4.5443 14.65353-2.0757.002-3.0946-2.47061-3.3719-3.6282zm-103.72636-15.55691c1.94335 0 5.2859.63025 7.91625 4.84251-1.50426 3.34036-2.57782 10.09045-2.72699 12.54845-.77313 12.5695 4.06947 24.39317 9.37008 24.72091 3.88669.23529 6.99604-3.44332 7.3532-9.40348.95591-15.66196-4.26066-22.19986-6.87209-27.84068.44119-2.18701 4.1514-5.90973 7.65152-5.90973 1.29207 0 2.85515.64916 3.24802 1.17437-.26052.90128-.52523 2.06725-.52523 3.75844 0 9.07577 5.83634 16.72921 10.89534 16.72921 4.01905 0 6.35316-5.31519 6.35316-8.82363 0-4.14291-3.50432-7.5211-8.68728-10.76274.9118-.90128 2.58833-1.55674 4.02115-1.55674 7.39732 0 11.2672 8.94969 14.13285 17.12206.51682 1.55885 1.43068 3.75845 3.24168 3.75845 3.1115 0 4.4141-20.48766 9.5865-20.48766 2.2123 0 4.0232 4.54208 4.0232 8.03373 0 2.59666-.9075 2.85716-.9075 6.61773 0 4.145 2.2059 7.64295 5.1955 7.64295 1.8131 0 2.4686-1.80675 2.4686-4.00635 0-8.30053-5.9729-23.7335-14.7778-23.7335-6.6242 0-6.1074 11.41192-8.43941 11.41192-2.60513 0-6.23551-11.54007-19.05949-11.54007-2.08411 0-4.28376 1.03574-6.09475 3.11559-3.10725-2.07985-5.70818-2.98744-8.69148-2.98744-4.79219 0-6.87209 4.92864-8.81123 4.92864-2.33832 0-4.92455-5.05679-12.71263-5.05679-6.22291 0-7.26076 8.29003-9.46042 8.29003-1.94965 0-4.93084-8.29003-8.17045-8.29003-5.45398 0-6.60948 14.38883-11.41637 14.38883-3.75853 0-15.6392-14.61363-18.8641-14.27958-1.29627.13445-1.84251 1.10294-1.70595 2.40128.18278 1.79415 1.72695 6.59673 2.35303 8.86776 1.04836 3.94332 2.01057 8.2648 2.54841 9.64297.53363 1.39079 1.97276 2.38238 3.12826 2.27525.58195-.0546.75633-1.14079.937-2.03785.65549-3.20591 1.56939-6.47488 2.60094-6.47488 1.82149 0 7.83641 11.54217 11.33653 11.54217 4.28586 0 4.79848-18.15777 10.63062-18.15777 1.94965 0 3.38037 2.32985 4.67243 5.19123.13236 4.80469 1.42862 11.6619 5.31742 11.6619 2.72488 0 4.02325-6.0883 2.0715-11.41189-.004-6.34883 4.1409-7.90557 6.86998-7.90557"/><path d="m1037.4512 55.090263c-.9622 0-2.3404 0-3.0988 1.510526-.6219 1.23951-.4118 3.237435-1.582 4.130302 1.1702-.342441 2.4076-.342441 3.3699-.342441 3.1009 0 6.0632 2.13238 8.3364 2.13238 1.4979 0 1.9811-.9643 1.9811-1.924394 0-3.031551-6.1115-5.506373-9.0066-5.506373zm1.5127-7.775303c7.1494 0 13.6958 5.710155 13.6958 10.731225 0 2.342465-1.105 4.266858-3.9266 4.611403.4811-.619758.687-1.100858.687-2.20171 0-3.785763-5.767-7.983292-12.0361-7.983292-2.2732 0-2.9623-1.579852-2.9623-2.405493 0-1.928594 1.8614-2.752133 4.5422-2.752133zm-.5484-2.890793c.8971-6.533696 10.7987-15.342627 13.4816-15.134638 1.7942.151258 2.4812 8.531616 2.4812 15.134638 0 3.783658.208 6.74378-1.79 7.432864-3.1703-6.401338-11.4857-7.708077-14.1728-7.432864"/><path d="m883.54879 1.1484224c2.33621 0 1.8551 14.3132016 5.63885 14.3132016.89709 0 1.17231-.894968 1.17231-1.995825 0-3.233232-1.58409-7.9832897-1.58409-10.5946671 0-1.3088387.34455-1.7227095.96432-1.7227095 1.65342 0 4.54218 15.7585986 7.3616 15.7585986.89499 0 1.30677-.894971 1.30677-1.789939 0-3.302563-4.19342-12.7963786-4.19342-15.47918235 0-.41387079.13445-.75631265.48111-.75631265 1.72064 0 5.15984 7.4286639 6.25862 11.142996.61977 1.928593 1.44543 2.962222 2.20385 2.962222.687 0 1.30888-.758416 1.30888-2.342467 0-3.7143322-3.4434-12.4518348-6.47082-18.3027471-2.33622-4.5399739-5.9834-11.0715669-5.9834-14.7186699 0-1.859267.33825-3.783661 3.02321-6.124025-4.40351.275213-6.19139.686981-7.84061 4.1261-7.3637-14.653544 13.553-13.210247 6.39729-26.208305-1.30887 2.334062-11.62646 4.743755-11.62646 18.36577 0 11.764854 10.31759 18.645189 10.31759 23.5276043 0 .9621967-.34035 1.7878383-1.23534 2.5441485-2.27319 1.9306936-2.34252 3.5084478-4.1304 3.5084478-1.30466 0-2.89296-3.0252482-1.23954-5.7080544.55254-.894968 1.03365-1.445394 1.03365-2.2710352 0-1.924394-3.02952-7.08202-5.15984-7.08202-2.13453 0-3.78165 5.289979-3.78165 13.8257973 0 7.5715242 1.71645 15.2039717 3.85098 15.2039717.61767 0 .82356-.41177.82356-.964296 0-.8949708-.27312-2.6807066-.27312-5.7080572 0-3.2332323.75632-3.5105454 1.3761-3.5105454"/><path d="m901.08932-19.007291c2.89295 0 5.2985 2.13658 5.2985 6.876137v7.0210935c0 2.6828063.20799 5.70805689 1.99797 7.8446347-.20799-.897068-.20799-1.85926475-.20799-2.75423268 0-5.91814112 3.30054-9.97911752 3.30054-15.68716952 0-2.13028-.61977-3.302561-2.26689-3.302561-1.58409 0-1.44543 1.445394-1.79208 1.445394-.27312 0-.687-.892868-.687-1.857165 0-1.445396 1.03155-3.714329 3.92031-3.714329 2.47908 0 4.47074 2.268933 4.47074 4.815181 0 6.187054-4.81529 13.0715922-4.81529 19.6746145 0 2.8907905.75633 4.8151865 1.3761 6.3320119 0-13.6934469 11.62645-23.6683594 11.62645-29.3764164 0-1.308838-.96222-2.342464-2.40764-2.342464-1.58199 0-2.34042 1.241612-2.34042 2.205912 0 .481097-.0693.617654-.27522.617654-.40968 0-1.64922-1.376067-1.64922-3.168111 0-2.266833 1.8551-5.023168 5.2964-5.023168 3.91821 0 6.05274 3.306764 6.05274 6.264786 0 7.220674-14.10344 18.1619862-14.10344 29.8554081 0 1.997925.34035 5.2311569 1.78998 7.7059769-9.08225-5.8446096-11.90168-13.62201548-11.90168-20.4330245 0-5.9181415-.20589-8.8719605-3.23331-8.8719605-1.58408 0-1.99586 1.441197-2.5484 1.441197-.41178 0-.61977-1.23741-.61977-1.579852.004-2.544151 1.86351-3.989547 3.71862-3.989547"/><path d="m1005.3262 58.460056c.8739.586142 4.7522-.342442 9.7671 2.13658.6177.338237 1.2374.476895 1.7879.476895 2.4118 0 1.7921-2.750033 3.9959-2.750033 1.7165 0 3.9245 1.445397 5.2334 1.445397 2.0505 0 5.0107-6.468567 5.0107-9.495916 0-3.508445-5.288-5.642928-11.5529-5.642928-9.1453 0-14.656 7.981193-14.656 13.143021 0 .411771.2101.550426.4139.686984zm15.0005-8.737503c3.0295 0 5.3006 1.376068 5.3006 2.203809 0 .271011-.4118.478998-1.3089.478998-.895 0-2.685.06723-6.059.619755-2.8951.481097-5.0968 1.581951-5.9225 1.581951-.2752 0-.4139-.136558-.4139-.342442 0-1.792038 3.3069-4.542071 8.4037-4.542071"/><path d="m902.53684-44.944584c-2.26898-.552528-5.91827-4.124002-5.91827-9.773231 0-6.73748 7.22504-17.130465 19.12672-17.130465 10.04237 0 12.52145 6.949669 12.52145 11.632498 0 10.386685-6.39519 17.680892-14.719 17.680892-4.54218 0-8.60325-3.302564-8.60325-8.184977 0-4.546274 3.4413-11.355183 11.62646-11.355183 3.85308 0 6.12206 2.756338 6.12206 5.911839 0 3.09878-2.81942 7.361432-6.94982 7.361432-1.23744 0-2.13033-.817233-2.13033-2.130275 0-1.647078 2.26689-3.302563 5.09052-3.302563.6849 0 1.23744.13866 1.51476.277315.13445-.212187.20589-.552528.20589-.827741 0-1.584052-1.51476-2.548349-3.85308-2.548349-3.50853 0-6.88049 2.613477-6.88049 6.750083 0 2.470617 2.13453 4.258455 5.22917 4.258455 6.12207 0 9.76715-5.432841 9.76715-10.871985 0-4.880311-2.67867-7.705975-8.18516-7.705975-11.00879.002-16.37032 9.911886-13.96478 19.95823"/><path d="m981.07321-85.256009c3.30053 0 3.12826.275215 4.16191.275215 1.02945 0 1.10088-.619757 1.10088-1.033625 0-1.514728-3.37407-3.371893-9.35958-3.371893-3.50852 0-5.64305 1.859267-6.26072 3.922319-3.4392-2.201709-8.66627-4.197532-13.82822-4.197532-14.10133 0-17.67918 6.128225-22.0848 8.117748-3.37197 1.514725-8.53181-1.445397-15.75685 6.605122.96432-.207984 2.27319-.27521 3.30473-.27521 6.32586 0 9.69782 3.090372 9.69782 8.048416 0 .621857-.0693 1.302539-.13866 1.920193 1.92864-.756312 6.33426-4.054673 7.36791-9.901383.13446-.689086 2.95388-1.306739 4.74386-1.306739 2.47908 0 5.64305 1.033626 6.12416 5.088297 8.2566.686984 13.83242 5.569399 15.00263 11.769054 2.95389-.964295 6.32585-3.647103 7.15151-5.027371 1.17021.411768 2.54421.619752 4.1262.619752 2.20175 0 4.68083-.41387 7.63682-1.308838.13866.894968.27522 1.995822 1.65342 1.995822 2.06309 0 1.51265-2.271035 2.20176-3.571472.34455-.689083 2.06729-1.100854 2.06729-2.479022 0-1.310941-1.10718-1.794141-1.79418-1.794141-.27522 0-.61977.06933-.82776.136558-1.374-.481097-1.44543-10.38248-7.22294-10.38248-4.26276 0-8.18516 3.508445-9.90791 7.907658-.48111 1.306741-1.51266 2.13448-2.47698 2.13448-1.09878 0-1.71855-.207986-3.02321-1.65338-3.71442-4.054674-9.90791-7.563119-17.54473-7.563119-2.34042 0-4.19763.210084-4.68084.210084-.27732 0-.27732-.06932-.27732-.136553 0-.4832 2.33832-2.342467 7.43093-2.342467 12.10967 0 15.06986 6.813109 16.99429 6.813109.27943 0 1.09878 0 1.57989-1.102954 2.82573-6.600923 8.98561-8.115648 12.83869-8.115648zm-5.33422 13.750173c0-1.514725 1.23954-2.754238 2.75429-2.754238 1.51476 0 2.7522 1.239513 2.7522 2.754238 0 1.516823-1.23744 2.756335-2.7522 2.756335-1.51475 0-2.75429-1.239512-2.75429-2.756335"/><path d="m1030.2283-37.169278c-.9643 0-1.9959-.758413-1.9959-2.61978 0-2.056749 1.5841-3.36769 2.477-3.777361.4832-.279413 1.2416-.554626 1.9917-.554626 1.9979 0 3.5841.554626 3.5841 2.208009 0 2.123978-3.103 4.743758-6.0569 4.743758zm-7.4225-4.262658c-1.4455 0-9.4373-10.663996-14.5867-10.663996-1.2374 0-2.2711 2.338262-2.2711 4.119797 0 .964297.6177 1.653384 2.8258 2.138681 11.8302 2.682806 9.2125 11.561069 19.3179 11.561069 5.5716 0 11.7735-3.789966 11.7735-12.317377 0-9.082047-12.9269-20.3616-14.8556-20.3616-1.5841 0-3.3047 2.268935-3.3047 3.781563 0 .481095.208 1.100852 1.5841 1.651278 6.5968 2.617677 10.3764 8.670276 10.3764 11.769053 0 .689082-.3425 1.369765-1.2375 1.369765-1.1681 0-6.1766-11.416108-11.7567-11.416108-3.8594 0-7.7839 3.500042-7.7839 5.155525 0 2.756338 11.158 7.842535 11.158 11.699725 0 1.447499-.6891 1.512625-1.2395 1.512625"/><path d="m886.64343 48.758254s-1.99376-1.510523-4.47074-1.510523c-2.95599 0-5.29641 2.199609-5.29641 5.296284 0 2.13448 1.10088 4.334087 3.64509 5.437041-.0672-.413868-.0672-.75631-.0672-1.170181-.002-3.924418 2.19966-6.880338 6.18929-8.052621zm14.72321-13.210247c-1.51266-1.785736-3.09675-4.815187-3.09675-7.909761 0-3.714332 2.27319-6.808907 5.78172-6.808907 3.36986 0 4.95395 2.888691 4.95395 5.84461 0 4.609297-4.19763 7.846735-7.63892 8.874058zm-22.83904-2.750033c-.13025-.212189-.20799-.483202-.20799-.758415 0-.619755.6891-1.306739 1.30467-1.306739.55044 0 .89499.136558 1.17021.136558 1.64922 0 3.50852-1.168081 6.19139-1.168081 1.57989 0 3.4392.4832 5.77751 1.649181 4.95396 2.479022 6.8826 8.600945 6.8826 9.63457 0 1.308841-1.05046 1.136568-1.92864 2.340365-.87818 1.199596-.54203 2.260532-1.10088 2.821464-.31724.321434-1.30467.342444-2.54631.481099-.41388.04412-.96432.06933-1.51476.06933-2.26688 0-4.95815-.279413-7.97927-2.203807-5.96659-3.808871-5.08841-10.11357-6.04853-11.695522zm16.16654 8.531619c.4769-.649168 1.79208-1.447497 1.79208-1.928599 0-.960094-.55464-2.201707-1.65342-2.201707-2.40975 0-4.33419 3.647103-4.33419 5.714357 0 1.304639.75843 1.441194 1.78788 1.441194.48111 0 .6891-.06933 1.03155-.275213.61767-.344544.61767-1.718509 1.3761-2.750032zm-6.33216-8.395064c-2.26899 0-4.74596 2.819364-4.74596 5.367713 0 1.373968 1.03154 3.096677 1.78787 3.096677.27522 0 .41388-.207984.48111-.691184.41178-3.36979 2.61564-5.298384 4.68084-6.25848.20589-.136558.34455-.205887.34455-.342442 0-.4832-1.30887-1.172284-2.54841-1.172284zm5.85105 17.33845c.34245 1.102957.61767 2.47482.61767 3.991645 0 3.300461-1.51686 8.323632-6.1935 8.323632-2.68077 0-4.61151-2.132378-4.61151-4.678626 0-5.437044 5.43717-7.636651 10.18734-7.636651zm-17.81996-27.519246c0-5.226957 1.58409-7.70598 4.40352-7.70598 2.20176 0 5.15984 1.584052 8.66627 4.6114-2.68077-.619755-4.74806-1.033625-6.60317-1.033625-2.47698 0-4.40142.964296-6.46662 4.128205zm2.40975 6.124023c-.0672-.346642-.0672-.689082-.0672-1.031526 0-3.233232 1.71645-5.023171 3.98754-5.023171 1.71434 0 3.71441 1.031526 5.49809 3.304664-.75213-.136555-1.64922-.205887-2.47488-.205887-2.5421 0-5.2943.684884-6.94352 2.95592zm16.85563.962196c-1.58619-.41177-4.88672-2.338261-4.88672-5.77738 0-2.474822 1.92444-4.060977 4.33418-4.060977 1.23954 0 2.13243.277316 2.68287.689087-1.92444 1.857164-2.61354 3.922316-2.61354 5.983267 0 1.447494.20589 2.340364.48321 3.166003zm2.47488 18.851076c0-1.512623 1.23744-2.754238 2.75009-2.754238 1.51477 0 2.7543 1.239512 2.7543 2.754238 0 1.51262-1.23953 2.754232-2.7543 2.754232-1.51265 0-2.75009-1.241612-2.75009-2.754232zm3.57576-6.191254c0-1.514726 1.24164-2.754236 2.7585-2.754236 1.51055 0 2.75009 1.23951 2.75009 2.754236 0 1.51052-1.23954 2.750032-2.75009 2.750032-1.51896 0-2.7585-1.239512-2.7585-2.750032"/><path d="m1009.0469 8.7199442c0 1.3739648 1.2395 2.5441488 2.5988 2.5441488 1.5169 0 2.6871-1.170184 2.6871-2.5441488 0-1.5819517-1.1723-2.6849064-2.6871-2.6849064-1.3593 0-2.5988 1.1029547-2.5988 2.6849064zm-24.15633 21.1893398c0-1.512626 1.24164-2.752138 2.75009-2.752138 1.51896 0 2.7585 1.239512 2.7585 2.752138 0 1.51052-1.24164 2.750032-2.7585 2.750032-1.50845 0-2.75009-1.239512-2.75009-2.750032zm-2.33622-9.699705c0-2.134477 1.78368-3.920216 3.9203-3.920216 2.13033 0 3.92451 1.785739 3.92451 3.920216 0 2.130283-1.79418 3.922319-3.92451 3.922319-2.13662 0-3.9203-1.792036-3.9203-3.922319zm8.67047 4.403419c0-2.342467 1.85931-4.197529 4.18502-4.197529 2.33832 0 4.20393 1.855062 4.20393 4.197529 0 2.338267-1.86561 4.195429-4.20393 4.195429-2.32571 0-4.18502-1.857162-4.18502-4.195429zm.34665 8.943386c0-1.447494 1.17021-2.61978 2.60094-2.61978 1.44542 0 2.61563 1.172286 2.61563 2.61978 0 1.441197-1.17231 2.611378-2.61563 2.611378-1.43073 0-2.60094-1.170181-2.60094-2.611378zm12.44793 6.600925c0-1.441194 1.1702-2.611377 2.6177-2.611377 1.4455 0 2.6178 1.170183 2.6178 2.611377 0 1.447497-1.1723 2.617678-2.6178 2.617678-1.4475 0-2.6177-1.170181-2.6177-2.617678zm-5.16406-8.462292c0-2.405488 1.99586-4.399213 4.40566-4.399213 2.4118 0 4.4098 1.993725 4.4098 4.399213 0 2.411796-1.9959 4.403418-4.4098 4.403418-2.4098 0-4.40566-1.991622-4.40566-4.403418zm-7.08008-16.096838c0-1.514722 1.23954-2.750032 2.7417-2.750032 1.51475 0 2.75639 1.23531 2.75639 2.750032 0 1.514726-1.24164 2.752136-2.75639 2.752136-1.50216 0-2.7417-1.23741-2.7417-2.752136zm9.00874 5.506373c0-1.514728 1.2374-2.754237 2.7564-2.754237 1.5126 0 2.7522 1.239509 2.7522 2.754237 0 1.510523-1.2396 2.750033-2.7522 2.750033-1.519 0-2.7564-1.23951-2.7564-2.750033zm-2.54633-9.701804c0-2.6134775 2.13243-4.7479552 4.75013-4.7479552 2.6157 0 4.7544 2.1344777 4.7544 4.7479552 0 2.61348-2.1387 4.74796-4.7544 4.74796-2.6177 0-4.75013-2.13448-4.75013-4.74796zm9.91213 5.850915c0-1.792039 1.4475-3.237435 3.2249-3.237435 1.79 0 3.2354 1.445396 3.2354 3.237435 0 1.785735-1.4454 3.231132-3.2354 3.231132-1.7774 0-3.2249-1.445397-3.2249-3.231132zm-.2059 8.668173c0-1.586151 1.311-2.89289 2.8761-2.89289 1.5862 0 2.8951 1.306739 2.8951 2.89289 0 1.579855-1.3089 2.886591-2.8951 2.886591-1.5651 0-2.8761-1.306736-2.8761-2.886591"/><path d="m1014.9525-64.348185c-1.7899-1.37817-5.975-4.468545-12.9311-4.468545-3.7165 0-5.36992 1.170184-5.92036 1.170184-.6891 0-1.44543-.686984-2.20385-1.584052-1.63452-1.928596-3.77114-5.506373-3.77114-9.424489 0-2.750032 2.13662-5.497965 6.11155-5.497965 12.8786 0 22.5029 8.046316 22.5029 14.57791 0 3.712232-2.2018 5.226957-3.788 5.226957zm-3.5778.75631c.5567.474795.687 1.23741.687 1.997925v1.581954c0 1.997923-3.0148 3.161804-7.1473 3.161804-5.02751 0-7.71248-2.264736-7.71248-3.231135v-3.163906c0-1.310939 3.03158-2.617677 6.75028-2.617677 2.9601 0 5.6451.75631 7.4225 2.271035zm-.5547-6.811009c.3467 0 .7564-.203784.7564-1.445396 0-1.510521-.6849-3.504243-3.1514-5.084095-1.7206-1.174386-4.0632-2.138683-7.5045-2.199606.5505 1.644978.9644 3.369787.9644 5.012665 0 .552529-.067.966399-.1366 1.584052h.895c5.4393-.002 7.7818 2.13238 8.1767 2.13238"/><path d="m984.54602 13.669586c.75633-5.8446123 8.60744-2.886593 8.60744-9.9707125 0-1.0336257-.27522-2.5504511-.27522-3.85508972 0-1.51472288.13446-2.82146408 1.29417-2.82146408 1.1681 0 1.44542.823539 1.44542 1.9264961 0 1.10295215-.27732 2.4769197-.27732 3.2332323 0 2.4096908 1.72275 2.9580218 2.7585 2.9580218 2.61559 0 4.61149-2.6828087 8.53809-2.6828087-.8971-4.4034158-9.98562-3.23323234-9.98562-8.0505189 0-2.4096933 2.40975-2.9559192 3.99382-2.9559192 1.4454 0 1.9287.2058841 1.9287 1.4411939 0 .6911863-.1387 1.4474965-.1387 1.9285961 0 .2773131.208.5525261.5525.5525261 1.519 0 8.9352-5.6429252 8.9352-7.3656372 0-1.579852-7.8343-3.161804-10.1054-3.161804-.6891 0-.8277.4811-.8277.756313 0 .481097 1.1702 1.926493 1.1702 2.750032 0 .619758-1.0316 1.033629-3.78797 1.033629-1.30887 0-2.27319-.138656-2.27319-1.172284 0-1.852964 3.02952-4.126102 3.02952-5.842509 0-1.37817-.82566-2.20381-3.02952-2.20381-1.85931 0-4.67033 1.447499-4.67033 3.85299 0 1.926496 1.98536 3.848787 1.98536 5.021068 0 .344545-.26261.894971-1.08827.894971-2.55051 0-3.23751-6.73958-12.25463-7.497993 1.44543 1.306739 2.68077 2.752135 2.68077 5.705954 0 1.445394-.34035 2.6176803-.34035 4.1975319 0 2.0651514.96012 3.0987796 2.33621 3.0987796 2.54421 0 3.78375-3.5756791 5.44137-3.5756791.89709 0 1.85931.8214389 1.85931 2.0609513 0 5.22905727-10.04867 4.4727446-10.04867 11.8341821.002 1.9958225.687 4.4727422 2.54631 7.9097612zm32.81628-20.1578141c0-1.7164044.5546-3.7122299 2.2753-3.7122299 1.4454 0 2.6828 2.197507 2.6828 4.6072003 0 2.7521327-.4811 4.88661545-.4811 5.98956755 0 .4789996.208.68488375.4811.68488375 1.0337-.069329 1.9959-2.8886904 3.101-2.8886904 1.2395 0 3.0862 2.27313804 3.8405 2.27313804.208 0 .2752-.27731556.2752-.3445444 0-1.03362572-1.5841-3.30676374-1.5841-4.19963164 0-.7563127 3.9938-.8928654 3.9938-1.5819517 0-1.0336257-4.1871-1.0336257-6.1809-1.9285937-1.9265-.8235415-3.103-1.8550646-3.103-3.2332348 0-1.376068 1.3782-1.649181 3.3068-1.649181 4.5968 0 7.8322 2.4748201 8.8638 2.4748201.2059 0 .3424-.1344531.3424-.3424391 0-.689084-2.3383-2.958022-2.3383-3.991645 0-1.168081 4.2691-2.539951 4.1998-3.231135-.067-.205884-.3446-.27311-.8257-.27311-.7605 0-1.9286.205884-2.8257.205884-.5505 0-1.0316-.06723-1.2417-.34244-.4769-.552531.1387-4.199631-.8193-4.199631-.8971 0-3.2375 8.117747-8.5234 8.117747-.7585 0-1.3089-.619757-1.3089-1.651283 0-2.750035 2.685-5.913938 5.2334-7.428661 1.1534-.758415 3.0841-1.514728 3.0841-1.930699 0-.821439-4.393-.06723-4.393-1.441191 0-1.239513.5504-3.100882.5504-4.197532 0-.344544-.069-.754212-.4811-.754212-.8256 0-2.8257 3.78156-3.7879 3.78156-.8257 0-2.6157-2.268938-3.3741-2.268938-.2059 0-.3424.205887-.3424.409669 0 1.584054 2.5484 5.159728 2.5484 8.670278 0 1.651281-.208 5.229058-2.206 5.229058-1.6513 0-3.5127-2.613478-4.3384-5.229058-.479-1.512625-.1365-7.361437-1.2395-7.361437-1.0316 0-.7563 3.920218-2.1366 3.920218-1.0148 0-3.2186-1.855067-3.9771-1.855067-.1386 0-.2773.06933-.2773.205887 0 .823539 1.998 3.508445 1.998 4.058874 0 1.031525-4.5443 1.168078-4.5443 1.993722 0 .483197 1.79.825639 3.4413 1.102952 3.5001.619755 8.6621 3.163909 8.6621 6.73958 0 3.9895452-3.8552 5.7122547-6.3889 7.3635378-1.3089.825639-2.7543 1.5105203-2.7543 2.0609488 0 .5525286 1.6513.5525286 2.3404.5525286 1.0315 0 2.0526.069329 2.0526.8928654 0 .62185743-.1387 1.85716718-.1387 2.821464 0 .6890838.067 1.2395123.3467 1.2395123 1.0315 0 2.477-3.36978998 3.1682-3.36978998 1.0987 0 2.6135 2.75213768 3.6493 2.75213768.3403 0 .4811-.2079892.4811-.8256416 0-2.546251-1.3068-5.4349414-1.3068-7.9160661"/><path d="m986.54399-25.540985c3.16817-.413868 3.9266-1.512623 3.9266-2.409693 0-1.514723-1.3782-1.993723-2.68917-1.993723-.96012 0-2.06309.205887-3.2333.205887-1.51686 0-3.02742-.344542-4.26486-1.789938.89289-.136556 2.20176-.758413 2.20176-2.136581 0-3.989547-11.07601-.682783-11.07601-10.939211 0-5.432842 5.64305-11.353083 14.17066-11.353083 4.40982 0 7.23134 1.445397 7.23134 3.10088 0 1.304636-2.33832.413873-2.33832 1.514725 0 .481097.82567 1.378168.82567 2.13868 0 .33194-.27523.955897-.82567.955897-1.24374 0-3.58415-1.989522-8.33222-1.989522-3.71652 0-7.3637 2.126075-7.3637 5.018968 0 .617657.27732.964297.6891.964297.41388 0 .96222-.277313 1.44543-.277313.41387 0 .48111.277313.48111 1.031525 0 .758413 0 2.892893 1.30466 2.892893 1.31097 0 3.78795-4.817286 13.28828-4.817286 3.15347 0 9.28185.615554 11.55505 2.682806-.069-7.569422-5.99393-17.544332-18.37251-17.544332-12.866 0-19.74649 10.321555-19.74649 19.81747 0 10.523238 8.59694 20.084282 20.36626 20.084282 3.02321 0 5.57582-1.029425 5.57582-2.338264-.002-1.792038-4.47704-.689086-4.81949-2.819364zm21.12471-3.651303c.4811-.752113.6891-1.510523.6891-2.197507 0-1.928596-1.3089-3.716434-1.3089-5.714359 0-2.268933 1.7228-4.124 4.3258-4.124 2.8215 0 4.7502 2.264735 4.7502 4.951744 0 3.647106-3.3048 6.741678-8.4562 7.084122zm-22.77813-4.401316c.68489-.684881.89498-1.373967.89498-2.063051 0-1.031526-.4811-2.134478-.4811-3.304661 0-1.644981 1.23954-3.092477 3.02531-3.092477 1.93074 0 3.24171 1.516825 3.24171 3.298361 0 2.61558-2.69337 5.161828-6.6809 5.161828zm9.14528 11.697625c7.22925-1.376068 11.15375-6.813109 11.15375-11.905611 0-3.510546-2.2018-6.737478-6.05904-6.737478-3.51273 0-6.04643 2.405491-6.04643 6.25848 0 2.888693 2.25638 5.916039 2.25638 8.876161 0 1.168081-.34245 2.338262-1.30466 3.508448zm3.57995-9.151376c0-.962197.6891-1.72061 1.65342-1.72061 1.09878 0 1.78998.9643 1.78998 2.065154 0 1.443292-1.30887 3.439117-2.54841 3.439117-.55254 0-.34455-.825642-.48111-1.720607-.0714-.684884-.41388-1.510526-.41388-2.063054"/><path d="m921.66567 39.745538c2.33831 0 5.01908 12.659822 5.01908 14.794299 0 .550426-.20379.964297-.6849.964297-2.13453 0-5.09051-12.042164-5.09051-14.727072-.002-.481095.13445-1.031524.75633-1.031524zm16.85563-3.783663c1.71644 0 3.64298 6.60723 3.64298 10.735428 0 .89497-.13656 1.855067-.55254 1.855067-1.44543 0-3.85307-6.811009-3.85307-10.525341.002-1.445397.34875-2.065154.76263-2.065154zm-11.22098 6.124028c.75633 0 1.72065.829844 3.51482 2.819364.13447.894968.13447 1.722709.13447 2.754232 0 1.373968-.55044 2.888693-1.374 2.888693-2.0673 0-3.09675-5.50427-3.09675-6.951766.002-.821439.41178-1.510523.82146-1.510523zm9.4289 2.819364c0 1.172283-.27732 1.447496-.55044 1.447496-.6891 0-1.44333-.827741-2.54421-2.684909.13656-2.476919.55044-3.577776 1.23744-3.577776.75633 0 1.85721 2.409696 1.85721 4.815189zm5.2985 8.119848c4.54218 0 6.60318-3.922317 6.60318-8.325735 0-1.924393-.54624-4.747957-1.44123-4.747957s-.75633 1.584051-.89499 3.029448c-.13656 1.857167-.48321 2.268935-1.10298 2.268935-1.17021 0-1.92444-2.750032-1.92444-5.298383 0-1.57985.27522-3.369791 1.51056-3.369791.6891 0 1.30887.344542 1.72275.756313-.27522-3.161803-2.61774-5.918141-5.91828-5.918141-6.05483 0-8.32592 7.088325-9.01082 11.216527-3.64718-3.852989-7.01705-6.674456-13.07398-6.674456-5.63885 0-8.18516 4.128203-8.18516 8.048419 0 1.172286.41178 4.197531 1.85931 4.197531 1.71854 0 .20589-5.63872 3.57575-5.63872.82776 0 2.33622.689081 3.16608 2.955917.48111 1.378167.75633 2.819361.75633 4.060974 0 1.859264-.41178 3.025248-1.78788 3.025248-1.17231 0-2.61774-.890768-3.09885-1.373968 1.65342 4.953842 5.64306 7.497993 10.04027 7.497993 5.44137 0 8.32802-4.815187 8.32802-10.182899 0-.75421-.0693-1.579852-.20799-2.338264 2.34042 3.852987 5.57793 6.811009 9.08435 6.811009"/><path d="m929.16173 34.520684c-2.95809 0-3.09465-3.58408-3.09465-10.802654-2.20386 4.745857-5.84684 9.838354-10.1138 9.838354-2.88875 0-3.98753-1.928596-3.98753-5.296281 0-.689086.0672-1.722712.20589-2.338267.34455 1.165981 1.44542 1.649181 2.81942 1.649181 2.96229 0 6.53805-2.268933 8.87636-5.367713-2.68076.481097-5.2964.964297-7.49606.964297-1.3782 0-2.61563-.138655-3.64718-.619755-1.99587-.892868-4.67874-3.852987-4.67874-8.325732 0-.689083.0693-1.443296.20799-2.268938 2.40765 5.367716 8.80493 7.775309 12.93323 7.775309.82776 0 1.44333-.06933 1.92654-.138661-2.13453-1.924391-2.61354-5.296281-2.7543-7.567316-.0651-1.100855-.48111-1.172286-1.23954-1.172286 0-2.2668356 1.79208-5.6408257 1.79208-7.3593326 0-.6197575-.34455-1.170186-.687-1.3088413 0-3.02734813 3.02321-5.2290548 3.02321-7.1534483 0-.4811022-.13445-.8949679-.34454-1.1029571.21009-1.2395124 3.53793-3.3214691 3.96862-4.3655977.52943-1.268928 1.12399-1.483215 1.46854-1.483215 1.17021 0 3.02322 1.378171 3.02322 2.6176804 0 .4117708-.34455.8928679-.61557 1.1008571-1.30887.9600942-1.99797 3.0252456-2.54841 4.3992132-.48321 0-1.10508.203784-1.32358 1.0147153-.37606 1.4243885-.39497 4.0777842-.94541 5.6618359-.89499.2058867-1.30887.5504261-1.30887 2.4075908 0 .8949729.55254 4.4055208.55254 5.6450303-.41178 0-.96221.275213-.96221 1.100855 0 2.199604 2.20385 3.920218 2.81942 6.739577 3.92241-2.88659 4.88252-5.844609 4.88252-8.462289 0-1.3718651-.20589-2.6807064-.48111-3.9223187 2.89086 1.4474965 7.22505 3.5798792 7.22505 7.9139657 0 2.548351-1.17021 5.367713-8.94569 6.468567 2.40764.894968 5.43716 1.373966 7.98137 1.373966 4.40562 0 6.94982-1.373966 7.49816-4.468543.89499 1.373968 1.58409 2.95802 1.58409 4.401316 0 3.373988-2.82363 5.571499-6.39938 5.571499-4.19763 0-7.91205-2.197511-11.90378-4.884515 1.79418 3.714329 3.02531 5.916038 5.23127 5.916038.34245 0 .687-.06933 1.03155-.138657-.82566 3.025248-3.92031 5.98747-5.57372 5.98747"/><path d="m1045.0817-15.084973c3.4455 0 6.1977-4.470642 6.1977-9.701799 0-5.571497-2.6177-11.628296-7.2838-15.752296-.069 9.285831-11.4353 6.327809-11.4353 13.067389 0 2.888691 2.0694 4.817284 4.5485 4.817284 2.2038 0 3.9245-.619754 5.164-1.861367-1.2395 1.172284-1.8593 2.825664-1.8593 4.405518 0 2.61978 1.6534 5.025271 4.6682 5.025271"/><path d="m983.65103 50.272979c1.79208-1.720609 3.36986-2.474819 5.2985-2.474819.76053 0 1.65762.203784 2.14083.203784.61977 0 1.02945-.273113 1.02945-.754213 0-.75841-.6891-1.997925-1.51266-2.687006.82356-.342442 1.72065-.4811 2.68497-.4811 3.9077 0 8.38268 2.47902 8.38268 8.668174.8298-1.09665 1.3109-3.369788 1.3109-4.403416 0-7.497993-5.51066-10.38668-10.59067-10.38668-3.30474 0-4.96026 1.102952-5.37624 1.102952-1.30467 0-1.23533-2.617678-2.13032-2.548351-1.58409.275213-3.02532 3.783663-3.02532 7.49799.002 2.203812.55254 4.542076 1.78788 6.262685zm10.38482 5.023174c-.55044.894965-2.60514 1.373962-3.56526 1.373962-3.03372 0-5.09891-2.130278-5.51069-4.058871-.27522.689084-.48112 1.514723-.48112 2.340364 0 3.027348 2.06521 6.74168 7.09479 6.74168 4.39091 0 6.11156-2.338264 6.73343-2.338264.687 0 1.3761.689084 1.9286.689084.7564 0 .7564-1.170184.7564-1.997923 0-2.750032-1.24167-7.497993-4.33842-9.218602-.55254 1.170183-1.65341 2.479022-3.43079 3.302561-.48111.205887-.687.617655-.687 1.031526-.002.758412.6849 1.722712 1.50006 2.134483"/><path d="m935.83423 70.294236c0-2.407594 8.59904-14.172444 10.25246-14.172444 1.3782 0 2.40765 2.407593 2.40765 4.474844 0 .546226-.13866 1.094552-.40968 1.510523-1.23954 1.720609-9.97724 8.600945-11.90588 8.600945-.20799 0-.34455-.207987-.34455-.413868zm-50.569 7.08622c0-1.378169-5.22707-5.985368-7.08218-5.985368-.687 0-.89709.82354-.89709 1.579851 0 1.373967.61977 3.302562 1.3782 3.924418.89079.825641 2.95599 1.233209 4.53798 1.233209.96221 0 2.06309-.201683 2.06309-.75211zm62.81943-3.991646c0 4.130303-11.16216 11.628295-11.28611 14.859427-.0126.296222.14916.590343.39917.852952 1.91183 2.016832 9.85119 3.487438 9.85119 5.205946 0 .890768-1.65342.890768-2.47908.890768-6.39728 0-15.75475-2.338265-15.75475-4.6072 0-2.342466 8.39315-8.052621 8.39315-10.874084 0-.756312-.48111-1.031525-1.23954-1.031525-2.33622 0-7.42883 2.823564-9.83648 2.823564-1.10088 0-1.51686-.756312-1.51686-1.861367 0-3.300462 3.9224-9.561045 3.9224-11.414007 0-.207984-.0693-.483199-.34455-.483199-1.23954 0-7.08218 6.876135-9.14947 6.876135-.75423 0-.82566-1.029424-.82566-2.544149v-2.338264c0-1.581952-.0693-2.546251-.82146-2.546251-1.79418 0-2.61774 5.021072-4.33629 5.021072-1.78998 0-2.13453-8.941288-3.85097-8.941288-1.99797 0-.27732 9.838357-2.20386 9.838357-2.13243 0-4.54218-6.537893-6.05693-6.537893-.54834 0-.6849.552526-.6849 1.033625 0 1.99372 1.16601 5.226953 1.16601 7.151347 0 .966399-.27523 1.514725-1.09668 1.514725-2.13663 0-6.81327-3.439119-8.60114-3.439119-.27522 0-.61977.136557-.61977.413871 0 1.64708 7.49816 6.878237 7.49816 9.216501 0 2.273137-10.32389.756312-10.32389 3.373991 0 2.199607 7.3679 4.470644 7.3679 6.74168 0 1.995823-8.7398 2.88659-12.10966 2.88659-4.06107 0-6.26073-.476896-6.26073-1.647079 0-1.789938 9.22091-2.342466 9.22091-3.922317 0-1.514725-9.56546-5.573598-9.56546-7.911863 0-2.065151 13.48366-.136556 13.48366-2.273137 0-2.336163-11.76091-12.447632-11.76091-15.819524 0-.75841.55044-1.102952 1.30467-1.102952 3.57786 0 12.86179 6.811006 15.4102 6.811006.89499 0 .96432-1.098752.96432-2.063049 0-1.789938-.61767-4.539973-.61767-6.537896 0-1.579851.41178-2.680706 1.78578-2.680706 2.55051 0 4.88462 4.33409 6.60947 4.33409 2.19966 0 .89289-12.727051 4.19553-12.727051 2.81943 0 3.98753 13.758574 5.77751 13.758574s3.23751-3.989545 4.88673-3.989545c2.06099 0 1.09878 6.947564 3.30264 6.947564 2.40554 0 9.28603-8.256405 12.38278-8.256405.96222 0 1.30467.758412 1.30467 1.722712 0 3.647103-5.08842 11.899305-5.08842 14.512783 0 .686983.20379.894969.96012.894969 2.68287 0 10.52978-3.714331 14.2421-3.714331 1.24794 0 2.00217.686983 2.00217 1.581952zm-7.15782 13.622017c0-1.23741 4.33419-3.922318 6.33216-3.922318 1.1681 0 1.51266 1.584054 1.51266 3.235335 0 2.06305-.89079 2.132379-2.68287 2.132379-2.27109 0-5.16195-.619756-5.16195-1.445396zm-16.16863 7.018994c0 .413871-2.0631.827741-4.88252.827741-4.47285 0-3.85308-3.720634-7.29228-3.720634-3.57785 0-2.68706 3.857191-7.22714 3.857191-2.75219 0-5.2943-.4832-5.2943-1.100854 0-.827741 3.23121-.483199 3.23121-2.756337 0-2.405492-6.94983-3.094576-6.94983-4.539972 0-.481098.54834-.686983 1.23744-.686983 1.51686 0 3.9203.686983 5.64306.686983.96431 0 1.8593-.203784 1.8593-1.098753 0-1.720609-3.71861-4.817287-3.71861-6.193354 0-.41387.34245-.552527.687-.552527 1.37819 0 3.71861 3.510547 5.91827 3.510547 3.64718 0 1.24164-7.773205 3.23331-7.773205 2.06309 0 1.1702 7.63875 4.12829 7.63875 2.41185 0 4.19763-5.298385 5.84894-5.298385.41389 0 .75634.342441.75634.82564 0 1.441194-2.0631 4.403416-2.0631 6.32781 0 1.170182.82565 1.72271 1.92653 1.72271 1.57989 0 3.71442-.964298 4.88043-.964298.41178 0 .82566.136557.82566.617655 0 1.651281-6.11786 3.439118-6.11786 5.571497.002 2.134481 3.36986 2.134481 3.36986 3.098778"/><path d="m1046.7331 82.880524c0-6.119824-4.4603-10.798453-12.5194-12.105193.8971-.06723 1.7228-.06723 2.5505-.06723 9.4184 0 12.8639 4.262658 12.8639 7.838332 0 1.997924-1.103 3.783661-2.895 4.334088zm-11.6223-6.945464c0 4.884514-11.6874 6.124025-11.6874 7.222778 0 .892868 6.5255 2.409694 9.8974 2.479022-5.1598 6.603023-12.513 5.913939-12.513 7.084122 0 .689084 5.5065 2.067252 10.5907 2.067252 4.2649 0 8.2566-.964298 8.2566-4.197531 0-1.792039-1.4454-3.651306-1.4454-6.399239 0-1.514724.7521-2.821463 2.7543-2.821463 2.1387 0 2.6156 2.268936 2.6156 4.68073 0 1.991621-.3425 3.506346-.3425 4.470643 0 2.888692 1.9812 4.813085 4.8048 4.813085 2.3405 0 2.893-1.027324 6.3364-1.027324-1.8614-1.105055-2.5484-3.100878-2.5484-4.060974 0-2.892893 1.8635-4.886615 1.8635-10.804755 0-10.86568-10.181-14.71867-22.6395-14.71867-3.4244 0-7.0779.275213-10.66.823539-.5483.06933-.687.205887-.687.550426 0 .894973 4.8909 1.378171 4.8909 5.777384 0 1.722711-.5525 3.371891-.5525 3.989545 0 .344542.2752.552528.5525.552528 1.0316 0 3.101-3.989544 6.9415-3.989544 1.021 0 3.5715.34454 3.5715 3.508446zm11.2105 15.201868c0-.960095.7563-1.716407 1.7206-1.716407.9644 0 1.7228.756312 1.7228 1.716407 0 .964298-.7584 1.722711-1.7228 1.722711-.9643 0-1.7206-.758413-1.7206-1.722711"/><path d="m1040.2076 27.571017c0 1.443296-3.6514 1.579854-3.9938 5.640825-.071.617658-.2773 1.716407-1.0358 1.716407-1.2374 0-.2752-3.783658-1.6513-3.783658-3.164 0-4.1955 6.193354-5.3657 6.193354-.2773 0-.6051-.205886-.6051-1.031526 0-.758412.1387-1.239509.1387-2.130277 0-.897073-.2101-1.516826-1.0337-1.516826-1.8593 0-3.5127 4.33619-5.0968 4.33619-.3445 0-.687-.207989-.687-.552529 0-.825641 1.374-2.336164 1.374-3.094577 0-1.653383-4.4749-.756312-4.4749-2.13448 0-.619755.6176-.823542 1.4454-.823542 1.4475 0 3.7207.615555 4.8909.615555.6891 0 1.7207-.136555 1.7207-1.027325 0-.964295-2.4791-2.201704-2.4791-3.096675 0-.413871.4118-.617652.7563-.617652 1.8593 0 5.1494 3.231129 7.4898 3.231129.4118 0 1.4433-.205881 1.4433-.825641 0-.892865-2.3383-2.47272-2.3383-3.781558 0-.344542.2101-.756313.6219-.756313 1.2311 0 2.8845 3.231132 5.227 3.231132.895 0 2.2039-.344542 2.8951-.344542.5525 0 .7584.344542.7584.552529zm1.79-33.3680588c1.103 3.4370189 2.4812 5.84880975 4.7355 9.5631442-2.2543 1.1659783-8.2482 3.6471056-8.2482 7.7059766 0 4.74796 5.9183 8.462287 7.1452 8.462287.5525 0 .6891-.483197.6891-1.378167 0-2.47482-1.1702-6.464365-1.1702-8.598845 0-1.9243936 1.2395-3.7857584 2.3404-3.7857584 1.1702 0 4.4056 4.1282004 4.4056 8.1891744 0 7.294208-6.4036 9.493815-8.3847 9.493815-1.8593 0-5.2334-3.025246-13.1497-3.025246-14.7883 0-18.1624 14.649339-18.1624 21.05068 0 .275213.065.344542.1345.344542.3446 0 1.7942-1.792039 6.4729-1.792039 2.4098 0 4.6136.621855 8.1264.621855 8.2418 0 11.8932-5.714357 16.99-13.00226 3.0821-1.924394 10.4521-5.023171 10.4521-13.760674 0-7.7059791-8.1936-11.9707396-10.1768-20.2271425 3.1513.3424418 5.0127 5.98746745 8.2482 5.98746745 1.6534 0 2.4097-1.30883875 2.4097-3.37609015 0-3.0231481-1.7227-7.5673188-5.0275-10.3866828.067.275213.067.621857.067 1.033625 0 1.924396-.7542 4.674429-2.9622 4.674429-3.4266 0-4.5275-3.714334-6.4541-6.806809-1.9979 7.0147932-4.6829 13.3468051-9.4982 17.1997948-4.872 3.9202161-13.2757 1.7899359-13.2757 8.9433892 0 1.928594 1.2417 4.678626 1.2417 6.880335 0 .756313-.1387 1.445394-.5547 1.99582 6.6116-2.479019 4.2691-6.878232 8.3365-11.4203085 2.5316-2.8928929 9.5528-5.6429255 13.6139-17.544334.067.3424418.1365 1.2353122.1365 1.8550671 0 10.1828966-13.4794 20.1620144-14.6496 24.2902144 7.8301-.894966 9.2062-2.823562 12.9248-13.1430185.7626-2.1344803 3.2438-7.4328664 3.2438-10.0442413"/><path d="m1004.3639 66.991674c-4.82156 0-7.98764 2.405489-7.98764 3.647101 0 .619756.41178 1.029426.96642 1.029426 1.51266 0 4.81742-2.336162 5.91622-2.336162.2794 0 .4832.134452.4832.548323 0 1.239512-1.1702 3.302563-1.1702 4.331987 0 .277315.2079.481099.6197.481099 1.8572 0 4.6115-.756312 6.0612-.756312.4811 0 .6176.275213.6176.552528 0 1.512623-4.477 4.470643-4.477 5.365612 0 .82564 5.5632 2.067253 5.5632 3.36979 0 1.378168-7.5633.413871-7.5633 1.72271 0 .962197 1.4475 2.613478 1.4475 3.36979 0 .344542-.2773.481098-.7563.481098-.6198 0-3.9245-1.306739-5.30269-1.306739-.687 0-1.51476.136556-1.51476 1.102955 0 1.581953 2.68497 3.300461 6.88675 3.300461 6.8007 0 10.866-4.678629 10.866-12.521163 0-9.907687-6.9372-12.382504-10.6559-12.382504zm-13.4122 13.069487c0 .758413-2.68916 2.201708-2.68916 3.027348 0 .136557.13445.205885.34244.205885.76053 0 2.0694-.275213 3.10515-.275213.89499 0 1.03155 3.852989 1.70805 3.852989.48111 0 1.30466-3.647104 2.0673-3.647104.89288 0 2.5442 1.033626 3.2333 1.033626.13656 0 .27522-.06723.27522-.207986 0-.481098-1.72065-2.336163-1.72065-2.88659 0-.619756 3.85725-1.378168 3.85725-1.928595 0-.689085-3.92658-.619756-3.92658-1.239512 0-.476896 1.44753-2.405491 1.44753-3.025247 0-.138657-.0714-.207986-.20799-.207986-.55254 0-2.68497.966399-3.30474.966399-.75842 0-1.98326-2.821464-2.60303-2.821464-.20589 0-.34245.275214-.34245.619756l-.13866 2.750034c0 .275213-.13446.552528-.48111.552528-.82776 0-2.41184.06933-2.89716.06933-.34455 0-.48111.06723-.48111.205885-.002.550427 2.7564 2.474821 2.7564 2.955919zm-2.00217-11.277451c1.10508 0 1.31097-2.687009 1.52106-4.266858.13656-.827741.27522-.89497.61977-.89497.82776 0 2.13243 3.163906 3.01691 3.163906 1.30467 0 4.8195-3.647103 10.67053-3.647103 8.3196 0 16.1687 5.850914 16.1687 16.166164 0 9.977014-7.0276 15.825826-16.7212 15.825826-4.60943 0-7.9877-2.271037-9.77768-2.271037-1.08617-.06933-2.73749 2.680706-3.56735 2.680706-.34245 0-.687-.682782-.687-1.855065 0-.758413 0-3.163905-.82776-3.163905-1.65552 0-8.0507 4.743757-8.0507 3.027349 0-1.584053 4.26065-6.40134 4.26065-7.63875s-4.19342-2.409694-4.19342-3.233233c0-1.512624 4.47074-1.787838 4.47074-3.716433 0-1.924393-4.68083-3.439118-4.68083-4.884514 0-1.168082 4.68083-.344542 4.68083-1.787838 0-1.443294-3.43919-6.260577-3.43919-7.632445 0-.346644.0672-.346644.34035-.346644 1.30887 0 5.23127 4.474844 6.19559 4.474844"/><path d="m957.78458-52.030808c0-.619755-.20799-1.308839-.75843-1.993723-.75213 1.373968-2.88876 2.063052-3.85308 2.060952-7.08638 0-4.40352-10.252226-11.97101-10.252226-3.16397 0-3.44129.413868-4.6073.413868-.48321 0-.75843-.207984-.75843-.619754 0-1.792039 2.54631-6.191255 9.63269-6.191255s13.89965 4.331987 13.89965 9.7039c0 .894973-.2059 1.850867-.61977 2.815164.27522.413871.96642.689084 1.58409.689084 1.09877 0 1.71854-1.243713 2.75009-1.243713 1.10298 0 1.92864.829842 1.92864 1.928596 0 .899171-.48111 1.514723-1.30467 1.932797.55044.409668.96222 1.098752.96222 1.855064 0 1.174384-.82776 2.268936-2.20596 2.268936-.61977 0-1.02945-.210087-1.51055-.680681-.13446 1.231107-.82567 2.40129-2.13453 2.40129-1.03155 0-1.79208-.75421-1.79208-1.928593 0-1.092452.75843-1.991623.75843-3.159706"/><path d="m920.08158-39.238632c5.50439-1.367665 8.25659-4.327787 8.80493-7.838332.55044-3.36979 1.23744-6.126125 2.5442-7.497993 1.72065-1.930696 5.09262-3.6408 8.05281-3.6408 2.47697 0 4.46864.817236 4.46864 3.090374 0 2.479022-3.36987 8.050519-8.32382 8.050519-.48111 0-1.10088-.07143-1.78998-.07143-.61977 0-1.51476.136558-2.0631.619755-1.09877.966399-1.44542 6.126128-3.50852 9.220702-2.26899 3.441222-4.74596 4.405519-8.11583 4.405519-2.40555 0-5.09262-1.304639-5.09262-3.233238 0-1.176483.61977-2.000022 5.02329-3.105077zm19.19605-15.407754c-2.0673 0-5.16195 2.205912-5.16195 3.445422 0 1.033628.96432 1.584054 1.71645 1.584054 1.72275 0 4.81529-2.138685 4.81529-3.926521.002-.4811-.34245-1.102955-1.36979-1.102955"/><path d="m932.94547-1.0511842c0 4.4034158 10.46045 6.7416801 10.46045 12.1787192 0 .894973-.34455 2.474822-.96432 3.645005 3.64299-1.993722 6.32795-5.3677121 6.32795-8.1177472 0-4.7479577-4.95185-6.9496668-4.95185-9.9097861 0-3.4391189 5.2964-3.989545 5.2964-8.2543057 0-3.506342-5.02328-7.567319-5.02328-12.107292 0-3.508446 2.47908-6.395036 6.25862-6.878236-1.23743-.275213-2.33621-.481097-3.50642-.481097-6.95193 0-14.10554 5.708055-14.10554 12.521161 0 3.36979 1.44543 6.323609 3.64299 8.4580871 1.93074-1.6512811 3.85517-2.7500331 5.09472-2.7500331 1.09877 0 1.58408.548326 1.58408 1.373966.002 2.5483531-10.1138 4.8845149-10.1138 10.3215588zm21.94825-34.7441288c-2.35933-1.079844-3.30053-.894968-3.30053-3.304661 0-.892871-.208-2.056749-.208-2.678606 0-.825642.13656-1.308839 1.09878-1.308839 2.47908 0 6.40149 4.195429 6.40149 7.775308 0 .966397-.55254 1.371865-1.17231 1.371865-.55045 0-1.16601-1.096654-2.81943-1.855067zm-.27522 4.955944c0 3.094577-6.39938 3.163906-6.39938 7.842535 0 1.172284.75423 3.163903 2.27108 5.300486.62188-3.577776 2.061-5.437041 5.16195-6.609325 6.11996-2.266838 6.94772-5.705954 6.94772-9.35726 0-6.193354-4.33418-13.897228-15.47953-13.897228-8.94569 0-15.34508 7.98329-15.34508 14.724967 0 1.85927.48111 3.920219 1.65132 3.920219 1.03365 0 1.3761-.823539 2.20176-1.647081 3.09885-3.100877 6.46871-3.922318 11.35334-3.922318 4.40351-.002 7.63682 1.785738 7.63682 3.645005"/><path d="m905.89621-32.330983c.16807-1.436994-.85927-2.733228-2.2942-2.901296-1.43703-.168071-2.73959.861355-2.90346 2.296246-.16808 1.439091.85927 2.73953 2.29629 2.907601 1.43703.168066 2.73539-.863458 2.90137-2.302551zm-12.8576-2.705917c.29203-2.348767 2.48329-4.130303 4.95606-3.85509.89289.09874 1.72065.342442 2.27319.686984.55044-2.199607 2.39714-3.61559 4.89303-3.287856 2.5337.329837 4.25645 2.325659 3.98333 4.871908-.0714.684883-.20799 1.102957-.41178 1.584054 0 0 .33405.03572.58616.08193 2.48538.470592 4.15981 2.464317 3.95181 4.87191-.27311 2.47692-2.49588 4.315182-4.80899 4.029461-.89709-.109245-1.72485-.451684-2.27739-.932786-.62187 2.060951-2.56101 3.852992-5.20816 3.416011-2.39294-.397066-3.97493-2.426502-3.73543-5.000063.0399-.418071.13656-.894968.34455-1.373968 0 0-.40547-.06092-.6849-.100839-2.00847-.298324-4.18712-2.319357-3.86148-4.99166"/></g></g></svg>