<svg width="109" height="36" viewBox="0 0 109 36" fill="none" xmlns="http://www.w3.org/2000/svg">
<path d="M33.7106 29.2499H31.4986V13.4999C31.4986 12.9032 31.2615 12.3309 30.8396 11.909C30.4176 11.487 29.8453 11.2499 29.2486 11.2499H23.0611C22.9119 11.2499 22.7688 11.3092 22.6633 11.4147C22.5578 11.5202 22.4986 11.6633 22.4986 11.8124V29.2499H20.2486V4.55761C20.2523 4.20714 20.1762 3.86042 20.0262 3.5437C19.8761 3.22697 19.6559 2.94854 19.3823 2.72948C19.0094 2.43872 18.5543 2.27285 18.0818 2.25543C17.6092 2.23802 17.1431 2.36993 16.7498 2.63245L5.49982 10.1249C5.1912 10.3309 4.93829 10.6099 4.7636 10.9372C4.58891 11.2645 4.49786 11.6299 4.49857 12.0009V29.2499H2.28653C1.99581 29.2457 1.71425 29.3516 1.49849 29.5465C1.28273 29.7414 1.14877 30.0108 1.12357 30.3004C1.11335 30.4543 1.13488 30.6086 1.18682 30.7539C1.23877 30.8991 1.32001 31.0321 1.42551 31.1445C1.53102 31.257 1.65852 31.3466 1.80011 31.4078C1.9417 31.4689 2.09434 31.5003 2.24857 31.4999H33.7486C33.9028 31.5003 34.0554 31.4689 34.197 31.4078C34.3386 31.3466 34.4661 31.257 34.5716 31.1445C34.6771 31.0321 34.7584 30.8991 34.8103 30.7539C34.8623 30.6086 34.8838 30.4543 34.8736 30.3004C34.8484 30.0108 34.7144 29.7414 34.4986 29.5465C34.2829 29.3516 34.0013 29.2457 33.7106 29.2499ZM10.6861 25.8749C10.6864 26.0292 10.655 26.1818 10.5939 26.3234C10.5328 26.465 10.4432 26.5925 10.3307 26.698C10.2182 26.8035 10.0852 26.8847 9.93997 26.9367C9.79476 26.9886 9.64042 27.0102 9.48653 26.9999C9.19663 26.9747 8.92706 26.8406 8.73213 26.6245C8.53721 26.4084 8.43141 26.1265 8.43607 25.8356V23.6629C8.4321 23.3723 8.53817 23.0909 8.733 22.8752C8.92783 22.6595 9.197 22.5255 9.48653 22.4999C9.64042 22.4897 9.79476 22.5113 9.93997 22.5632C10.0852 22.6152 10.2182 22.6964 10.3307 22.8019C10.4432 22.9074 10.5328 23.0349 10.5939 23.1765C10.655 23.3181 10.6864 23.4707 10.6861 23.6249V25.8749ZM10.6861 17.9999C10.6864 18.1542 10.655 18.3068 10.5939 18.4484C10.5328 18.59 10.4432 18.7175 10.3307 18.823C10.2182 18.9285 10.0852 19.0097 9.93997 19.0617C9.79476 19.1136 9.64042 19.1352 9.48653 19.1249C9.19676 19.0994 8.92738 18.9652 8.73252 18.7492C8.53765 18.5332 8.43175 18.2514 8.43607 17.9606V15.7879C8.4321 15.4973 8.53817 15.2159 8.733 15.0002C8.92783 14.7845 9.197 14.6505 9.48653 14.6249C9.64042 14.6147 9.79476 14.6363 9.93997 14.6882C10.0852 14.7402 10.2182 14.8214 10.3307 14.9269C10.4432 15.0324 10.5328 15.1599 10.5939 15.3015C10.655 15.4431 10.6864 15.5957 10.6861 15.7499V17.9999ZM16.3111 25.8749C16.3114 26.0292 16.28 26.1818 16.2189 26.3234C16.1578 26.465 16.0682 26.5925 15.9557 26.698C15.8432 26.8035 15.7102 26.8847 15.565 26.9367C15.4198 26.9886 15.2654 27.0102 15.1115 26.9999C14.8221 26.9748 14.553 26.841 14.3581 26.6255C14.1632 26.4101 14.0571 26.1289 14.0611 25.8384V23.6629C14.0575 23.3725 14.1637 23.0915 14.3585 22.8761C14.5533 22.6607 14.8222 22.5269 15.1115 22.5014C15.2654 22.4911 15.4198 22.5127 15.565 22.5646C15.7102 22.6166 15.8432 22.6978 15.9557 22.8033C16.0682 22.9088 16.1578 23.0363 16.2189 23.1779C16.28 23.3195 16.3114 23.4721 16.3111 23.6264V25.8749ZM16.3111 17.9999C16.3114 18.1542 16.28 18.3068 16.2189 18.4484C16.1578 18.59 16.0682 18.7175 15.9557 18.823C15.8432 18.9285 15.7102 19.0097 15.565 19.0617C15.4198 19.1136 15.2654 19.1352 15.1115 19.1249C14.8222 19.0994 14.5533 18.9656 14.3585 18.7502C14.1637 18.5348 14.0575 18.2538 14.0611 17.9634V15.7879C14.0575 15.4975 14.1637 15.2165 14.3585 15.0011C14.5533 14.7857 14.8222 14.6519 15.1115 14.6264C15.2654 14.6161 15.4198 14.6377 15.565 14.6896C15.7102 14.7416 15.8432 14.8228 15.9557 14.9283C16.0682 15.0338 16.1578 15.1613 16.2189 15.3029C16.28 15.4445 16.3114 15.5971 16.3111 15.7514V17.9999Z" fill="#FFA500"/>
<path d="M51.36 16.24V11.2C51.36 10.9067 51.28 10.6933 51.12 10.56C50.96 10.4 50.7067 10.32 50.36 10.32H42.92V5.32H52.48C54.6133 5.32 56.12 5.77333 57 6.68C57.9067 7.58667 58.36 8.78667 58.36 10.28V16.92C58.36 18.4133 57.9067 19.6133 57 20.52C56.12 21.4267 54.6133 21.88 52.48 21.88H42.92V17.12H50.36C50.7067 17.12 50.96 17.0533 51.12 16.92C51.28 16.76 51.36 16.5333 51.36 16.24ZM40.6 5.32H47.6V31H40.6V5.32ZM46.8 19.08H53.64L59.64 31H52.12L46.8 19.08ZM75.3469 25.44H70.5469L67.3869 14.76V31H61.1469V5.32H68.7869L72.9469 19.04L77.1069 5.32H84.7469V31H78.5469V14.68L75.3469 25.44ZM103.664 22.2V27.16H90.8238V22.2H103.664ZM108.064 31H101.024L97.1838 12.96L93.2238 31H86.3438L92.9438 5.32H101.464L108.064 31Z" fill="black"/>
</svg>
